<mxfile host="app.diagrams.net" modified="2021-05-18T07:20:44.987Z" agent="5.0 (Windows)" etag="E_6wqvFMNkFe4Ui-RLd6" version="14.6.13" type="github">
  <diagram id="CyRzjfjFAZTxKBAaBL2d" name="Page-1">
    <mxGraphModel dx="1422" dy="763" grid="1" gridSize="10" guides="1" tooltips="1" connect="1" arrows="1" fold="1" page="1" pageScale="1" pageWidth="827" pageHeight="1169" math="0" shadow="0">
      <root>
        <mxCell id="0" />
        <mxCell id="1" parent="0" />
        <mxCell id="nBbVT61KDXHE3FzTZbYH-4" style="edgeStyle=orthogonalEdgeStyle;rounded=0;orthogonalLoop=1;jettySize=auto;html=1;entryX=0.5;entryY=1;entryDx=0;entryDy=0;noEdgeStyle=1;orthogonal=1;" parent="1" source="nBbVT61KDXHE3FzTZbYH-1" target="nBbVT61KDXHE3FzTZbYH-2" edge="1">
          <mxGeometry relative="1" as="geometry">
            <Array as="points" />
          </mxGeometry>
        </mxCell>
        <mxCell id="nBbVT61KDXHE3FzTZbYH-1" value="" style="rounded=0;whiteSpace=wrap;html=1;" parent="1" vertex="1">
          <mxGeometry x="100" y="200" width="120" height="60" as="geometry" />
        </mxCell>
        <mxCell id="nBbVT61KDXHE3FzTZbYH-2" value="" style="rounded=0;whiteSpace=wrap;html=1;" parent="1" vertex="1">
          <mxGeometry x="100" width="120" height="60" as="geometry" />
        </mxCell>
      </root>
    </mxGraphModel>
  </diagram>
</mxfile>
